<svg xmlns="http://www.w3.org/2000/svg" width="1500" height="600" viewBox="0 0 1500 600"><rect width="100%" height="100%" fill="#DDDDDD"/><path fill="#999999" d="M363.545 347.345h22.88v16.28h-70.4v-16.28h25.79v-74.18q0-4.4.26-9.07l-18.3 15.31q-1.59 1.24-3.13 1.54-1.54.31-2.9.05-1.37-.27-2.42-.93-1.06-.66-1.59-1.45l-6.86-9.41 38.81-33h17.86v111.14Zm74.1-91.26-4.49 26.49q4.22-.88 8.1-1.27 3.87-.4 7.48-.4 10.03 0 17.68 2.99 7.66 2.99 12.85 8.27 5.19 5.28 7.83 12.37 2.64 7.08 2.64 15.27 0 10.12-3.56 18.48-3.56 8.36-9.9 14.3-6.34 5.94-15 9.19-8.67 3.26-18.88 3.26-5.98 0-11.35-1.23-5.37-1.24-10.08-3.3-4.71-2.07-8.71-4.76-4-2.68-7.17-5.67l6.69-9.24q2.11-2.99 5.54-2.99 2.2 0 4.49 1.4 2.29 1.41 5.23 3.08 2.95 1.68 6.96 3.08 4 1.41 9.63 1.41 5.99 0 10.56-1.93 4.58-1.94 7.61-5.42 3.04-3.47 4.58-8.27 1.54-4.79 1.54-10.43 0-10.38-6.03-16.23t-17.82-5.85q-9.06 0-18.57 3.34l-13.55-3.87 10.56-61.78h62.83v9.24q0 4.67-2.9 7.57-2.9 2.9-9.86 2.9h-34.93Zm159.54 43.92q0 16.63-3.56 28.9-3.57 12.28-9.86 20.29-6.29 8.01-14.87 11.92-8.58 3.92-18.52 3.92-9.95 0-18.44-3.92-8.49-3.91-14.74-11.92t-9.77-20.29q-3.52-12.27-3.52-28.9 0-16.72 3.52-28.96 3.52-12.23 9.77-20.24 6.25-8 14.74-11.92t18.44-3.92q9.94 0 18.52 3.92t14.87 11.92q6.29 8.01 9.86 20.24 3.56 12.24 3.56 28.96Zm-22.44 0q0-13.82-2.02-22.88-2.03-9.07-5.41-14.44-3.39-5.36-7.79-7.52-4.4-2.16-9.15-2.16-4.67 0-9.02 2.16-4.36 2.16-7.7 7.52-3.35 5.37-5.33 14.44-1.98 9.06-1.98 22.88 0 13.81 1.98 22.88 1.98 9.06 5.33 14.43 3.34 5.37 7.7 7.52 4.35 2.16 9.02 2.16 4.75 0 9.15-2.16 4.4-2.15 7.79-7.52 3.38-5.37 5.41-14.43 2.02-9.07 2.02-22.88Zm124.52 0q0 16.63-3.56 28.9-3.57 12.28-9.86 20.29-6.29 8.01-14.87 11.92-8.58 3.92-18.52 3.92-9.95 0-18.44-3.92-8.49-3.91-14.74-11.92t-9.77-20.29q-3.52-12.27-3.52-28.9 0-16.72 3.52-28.96 3.52-12.23 9.77-20.24 6.25-8 14.74-11.92t18.44-3.92q9.94 0 18.52 3.92t14.87 11.92q6.29 8.01 9.86 20.24 3.56 12.24 3.56 28.96Zm-22.44 0q0-13.82-2.02-22.88-2.03-9.07-5.41-14.44-3.39-5.36-7.79-7.52-4.4-2.16-9.15-2.16-4.67 0-9.02 2.16-4.36 2.16-7.7 7.52-3.35 5.37-5.33 14.44-1.98 9.06-1.98 22.88 0 13.81 1.98 22.88 1.98 9.06 5.33 14.43 3.34 5.37 7.7 7.52 4.35 2.16 9.02 2.16 4.75 0 9.15-2.16 4.4-2.15 7.79-7.52 3.38-5.37 5.41-14.43 2.02-9.07 2.02-22.88Zm162.19 34.49-11.53 11.35-29.83-29.83-30.1 30.01-11.53-11.35 30.1-30.19-28.69-28.68 11.44-11.44 28.69 28.68 28.51-28.51 11.62 11.44-28.6 28.6 29.92 29.92Zm135.96-98.12-37.76 46.2-4.4 5.46q3.7-1.85 7.97-2.86 4.27-1.01 9.19-1.01 7.22 0 14.04 2.37 6.82 2.38 12.01 7.17 5.19 4.8 8.36 11.93 3.17 7.13 3.17 16.63 0 8.89-3.26 16.68-3.25 7.78-9.15 13.59-5.89 5.81-14.21 9.15-8.32 3.35-18.35 3.35-10.21 0-18.3-3.26-8.1-3.25-13.82-9.11-5.72-5.85-8.75-14.08-3.04-8.22-3.04-18.26 0-8.97 3.65-18.43 3.65-9.46 11.31-19.67l30.36-40.74q1.58-2.12 4.62-3.61 3.04-1.5 7-1.5h19.36Zm-32.83 110.88q5.19 0 9.55-1.76t7.48-4.93q3.12-3.16 4.88-7.43 1.76-4.27 1.76-9.29 0-5.45-1.67-9.81-1.67-4.35-4.75-7.39t-7.39-4.62q-4.31-1.58-9.51-1.58-5.19 0-9.41 1.76-4.23 1.76-7.22 4.88-2.99 3.12-4.66 7.39t-1.67 9.2q0 5.28 1.45 9.63 1.45 4.36 4.31 7.44 2.86 3.08 7.08 4.8 4.23 1.71 9.77 1.71Zm148.9-47.25q0 16.63-3.57 28.9-3.56 12.28-9.85 20.29-6.29 8.01-14.87 11.92-8.58 3.92-18.53 3.92-9.94 0-18.43-3.92-8.5-3.91-14.74-11.92-6.25-8.01-9.77-20.29-3.52-12.27-3.52-28.9 0-16.72 3.52-28.96 3.52-12.23 9.77-20.24 6.24-8 14.74-11.92 8.49-3.92 18.43-3.92 9.95 0 18.53 3.92 8.58 3.92 14.87 11.92 6.29 8.01 9.85 20.24 3.57 12.24 3.57 28.96Zm-22.44 0q0-13.82-2.03-22.88-2.02-9.07-5.41-14.44-3.39-5.36-7.79-7.52-4.4-2.16-9.15-2.16-4.66 0-9.02 2.16-4.35 2.16-7.7 7.52-3.34 5.37-5.32 14.44-1.98 9.06-1.98 22.88 0 13.81 1.98 22.88 1.98 9.06 5.32 14.43 3.35 5.37 7.7 7.52 4.36 2.16 9.02 2.16 4.75 0 9.15-2.16 4.4-2.15 7.79-7.52 3.39-5.37 5.41-14.43 2.03-9.07 2.03-22.88Zm124.52 0q0 16.63-3.57 28.9-3.56 12.28-9.85 20.29-6.29 8.01-14.87 11.92-8.58 3.92-18.53 3.92-9.94 0-18.43-3.92-8.5-3.91-14.74-11.92-6.25-8.01-9.77-20.29-3.52-12.27-3.52-28.9 0-16.72 3.52-28.96 3.52-12.23 9.77-20.24 6.24-8 14.74-11.92 8.49-3.92 18.43-3.92 9.95 0 18.53 3.92 8.58 3.92 14.87 11.92 6.29 8.01 9.85 20.24 3.57 12.24 3.57 28.96Zm-22.44 0q0-13.82-2.03-22.88-2.02-9.07-5.41-14.44-3.39-5.36-7.79-7.52-4.4-2.16-9.15-2.16-4.66 0-9.02 2.16-4.35 2.16-7.7 7.52-3.34 5.37-5.32 14.44-1.98 9.06-1.98 22.88 0 13.81 1.98 22.88 1.98 9.06 5.32 14.43 3.35 5.37 7.7 7.52 4.36 2.16 9.02 2.16 4.75 0 9.15-2.16 4.4-2.15 7.79-7.52 3.39-5.37 5.41-14.43 2.03-9.07 2.03-22.88Z"/></svg>